Cats & Dogs.The.Revenge.of.Kitty.Galore.2010.DvDRip.Feel-Free 


Genre:Action | Comedy | Family
Language:English
IMDb:http://www.imdb.com/title/tt1287468/
Source:DVD PAL
Subtitles:Romana

General
Complete name :Cats&Dogs.The.Revenge.of.Kitty.Galore.2010.DvDRip.Ac3.Feel-Free
Format : AVI
Format/Info : Audio Video Interleave
File size : 847 MiB
Duration : 1h 22mn
Overall bit rate : 1 438 Kbps
Video #0
Muxing mode : Packed bitstream
Codec ID : XVID
Codec ID/Hint : XviD
Duration : 1h 22mn
Bit rate : 981 Kbps
Width : 720 pixels
Height : 400 pixels
Display aspect ratio : 16:9
Frame rate : 23.976 fps
Resolution : 24 bits
Colorimetry : 4:2:0
Scan type : Progressive
Bits/(Pixel*Frame) : 0.142
Stream size : 578 MiB (68%)
Writing library : XviD 1.3.0.dev55
Audio #1
ID : 1
Format : AC-3
Format/Info : Audio Coding 3
Codec ID : 2000
Duration : 1h 22mn
Bit rate mode : Constant
Bit rate : 448 Kbps
Channel(s) : 6 channels
Channel positions : Front: L C R, Surround: L R, LFE
Sampling rate : 48.0 KHz
Stream size : 264 MiB (31%)
Alignment : Split accross interleaves
Interleave, duration : 42 ms (1.00 video frame)
Interleave, preload duration : 500 ms

Plot:
The ongoing war between the canine and feline species is put on hold when they join forces to thwart a rogue cat spy with her own sinister plans for conquest.


Screenshots:

 
http://www.postimg.com/image/23000/22880.jpg
 
http://www.postimg.com/image/23000/22881.jpg


ENJOY!